<?xml version="1.0" encoding="UTF-8"?>
<!DOCTYPE svg PUBLIC "-//W3C//DTD SVG 1.1//EN" "http://www.w3.org/Graphics/SVG/1.1/DTD/svg11.dtd">
<svg version="1.2" width="119.91mm" height="120.55mm" viewBox="2233 1723 11991 12055" preserveAspectRatio="xMidYMid" fill-rule="evenodd" stroke-width="28.222" stroke-linejoin="round" xmlns="http://www.w3.org/2000/svg" xmlns:ooo="http://xml.openoffice.org/svg/export" xmlns:xlink="http://www.w3.org/1999/xlink" xmlns:presentation="http://sun.com/xmlns/staroffice/presentation" xmlns:smil="http://www.w3.org/2001/SMIL20/" xmlns:anim="urn:oasis:names:tc:opendocument:xmlns:animation:1.0" xml:space="preserve">
 <defs class="EmbeddedBulletChars">
  <g id="bullet-char-template-57356" transform="scale(0.00048828125,-0.00048828125)">
   <path d="M 580,1141 L 1163,571 580,0 -4,571 580,1141 Z"/>
  </g>
  <g id="bullet-char-template-57354" transform="scale(0.00048828125,-0.00048828125)">
   <path d="M 8,1128 L 1137,1128 1137,0 8,0 8,1128 Z"/>
  </g>
  <g id="bullet-char-template-10146" transform="scale(0.00048828125,-0.00048828125)">
   <path d="M 174,0 L 602,739 174,1481 1456,739 174,0 Z M 1358,739 L 309,1346 659,739 1358,739 Z"/>
  </g>
  <g id="bullet-char-template-10132" transform="scale(0.00048828125,-0.00048828125)">
   <path d="M 2015,739 L 1276,0 717,0 1260,543 174,543 174,936 1260,936 717,1481 1274,1481 2015,739 Z"/>
  </g>
  <g id="bullet-char-template-10007" transform="scale(0.00048828125,-0.00048828125)">
   <path d="M 0,-2 C -7,14 -16,27 -25,37 L 356,567 C 262,823 215,952 215,954 215,979 228,992 255,992 264,992 276,990 289,987 310,991 331,999 354,1012 L 381,999 492,748 772,1049 836,1024 860,1049 C 881,1039 901,1025 922,1006 886,937 835,863 770,784 769,783 710,716 594,584 L 774,223 C 774,196 753,168 711,139 L 727,119 C 717,90 699,76 672,76 641,76 570,178 457,381 L 164,-76 C 142,-110 111,-127 72,-127 30,-127 9,-110 8,-76 1,-67 -2,-52 -2,-32 -2,-23 -1,-13 0,-2 Z"/>
  </g>
  <g id="bullet-char-template-10004" transform="scale(0.00048828125,-0.00048828125)">
   <path d="M 285,-33 C 182,-33 111,30 74,156 52,228 41,333 41,471 41,549 55,616 82,672 116,743 169,778 240,778 293,778 328,747 346,684 L 369,508 C 377,444 397,411 428,410 L 1163,1116 C 1174,1127 1196,1133 1229,1133 1271,1133 1292,1118 1292,1087 L 1292,965 C 1292,929 1282,901 1262,881 L 442,47 C 390,-6 338,-33 285,-33 Z"/>
  </g>
  <g id="bullet-char-template-9679" transform="scale(0.00048828125,-0.00048828125)">
   <path d="M 813,0 C 632,0 489,54 383,161 276,268 223,411 223,592 223,773 276,916 383,1023 489,1130 632,1184 813,1184 992,1184 1136,1130 1245,1023 1353,916 1407,772 1407,592 1407,412 1353,268 1245,161 1136,54 992,0 813,0 Z"/>
  </g>
  <g id="bullet-char-template-8226" transform="scale(0.00048828125,-0.00048828125)">
   <path d="M 346,457 C 273,457 209,483 155,535 101,586 74,649 74,723 74,796 101,859 155,911 209,963 273,989 346,989 419,989 480,963 531,910 582,859 608,796 608,723 608,648 583,586 532,535 482,483 420,457 346,457 Z"/>
  </g>
  <g id="bullet-char-template-8211" transform="scale(0.00048828125,-0.00048828125)">
   <path d="M -4,459 L 1135,459 1135,606 -4,606 -4,459 Z"/>
  </g>
  <g id="bullet-char-template-61548" transform="scale(0.00048828125,-0.00048828125)">
   <path d="M 173,740 C 173,903 231,1043 346,1159 462,1274 601,1332 765,1332 928,1332 1067,1274 1183,1159 1299,1043 1357,903 1357,740 1357,577 1299,437 1183,322 1067,206 928,148 765,148 601,148 462,206 346,322 231,437 173,577 173,740 Z"/>
  </g>
 </defs>
 <g class="Page">
  <g class="com.sun.star.drawing.CustomShape">
   <g id="id3">
    <rect class="BoundingBox" stroke="none" fill="none" x="3723" y="1725" width="1555" height="1555"/>
    <path fill="rgb(191,129,158)" stroke="none" d="M 4500,3252 L 3750,3252 3750,1752 5250,1752 5250,3252 4500,3252 Z"/>
    <path fill="none" stroke="rgb(0,0,0)" stroke-width="53" stroke-linejoin="round" d="M 4500,3252 L 3750,3252 3750,1752 5250,1752 5250,3252 4500,3252 Z"/>
   </g>
  </g>
  <g class="com.sun.star.drawing.CustomShape">
   <g id="id4">
    <rect class="BoundingBox" stroke="none" fill="none" x="3723" y="3223" width="1555" height="1555"/>
    <path fill="rgb(255,255,255)" stroke="none" d="M 4500,4750 L 3750,4750 3750,3250 5250,3250 5250,4750 4500,4750 Z"/>
    <path fill="none" stroke="rgb(0,0,0)" stroke-width="53" stroke-linejoin="round" d="M 4500,4750 L 3750,4750 3750,3250 5250,3250 5250,4750 4500,4750 Z"/>
   </g>
  </g>
  <g class="com.sun.star.drawing.CustomShape">
   <g id="id5">
    <rect class="BoundingBox" stroke="none" fill="none" x="3723" y="4723" width="1555" height="1555"/>
    <path fill="rgb(191,129,158)" stroke="none" d="M 4500,6250 L 3750,6250 3750,4750 5250,4750 5250,6250 4500,6250 Z"/>
    <path fill="none" stroke="rgb(0,0,0)" stroke-width="53" stroke-linejoin="round" d="M 4500,6250 L 3750,6250 3750,4750 5250,4750 5250,6250 4500,6250 Z"/>
   </g>
  </g>
  <g class="com.sun.star.drawing.CustomShape">
   <g id="id6">
    <rect class="BoundingBox" stroke="none" fill="none" x="3723" y="6221" width="1555" height="1555"/>
    <path fill="rgb(255,255,255)" stroke="none" d="M 4500,7748 L 3750,7748 3750,6248 5250,6248 5250,7748 4500,7748 Z"/>
    <path fill="none" stroke="rgb(0,0,0)" stroke-width="53" stroke-linejoin="round" d="M 4500,7748 L 3750,7748 3750,6248 5250,6248 5250,7748 4500,7748 Z"/>
   </g>
  </g>
  <g class="com.sun.star.drawing.CustomShape">
   <g id="id7">
    <rect class="BoundingBox" stroke="none" fill="none" x="3723" y="7721" width="1555" height="1555"/>
    <path fill="rgb(191,129,158)" stroke="none" d="M 4500,9248 L 3750,9248 3750,7748 5250,7748 5250,9248 4500,9248 Z"/>
    <path fill="none" stroke="rgb(0,0,0)" stroke-width="53" stroke-linejoin="round" d="M 4500,9248 L 3750,9248 3750,7748 5250,7748 5250,9248 4500,9248 Z"/>
   </g>
  </g>
  <g class="com.sun.star.drawing.CustomShape">
   <g id="id8">
    <rect class="BoundingBox" stroke="none" fill="none" x="3723" y="9221" width="1555" height="1555"/>
    <path fill="rgb(255,255,255)" stroke="none" d="M 4500,10748 L 3750,10748 3750,9248 5250,9248 5250,10748 4500,10748 Z"/>
    <path fill="none" stroke="rgb(0,0,0)" stroke-width="53" stroke-linejoin="round" d="M 4500,10748 L 3750,10748 3750,9248 5250,9248 5250,10748 4500,10748 Z"/>
   </g>
  </g>
  <g class="com.sun.star.drawing.CustomShape">
   <g id="id9">
    <rect class="BoundingBox" stroke="none" fill="none" x="3723" y="10723" width="1555" height="1555"/>
    <path fill="rgb(191,129,158)" stroke="none" d="M 4500,12250 L 3750,12250 3750,10750 5250,10750 5250,12250 4500,12250 Z"/>
    <path fill="none" stroke="rgb(0,0,0)" stroke-width="53" stroke-linejoin="round" d="M 4500,12250 L 3750,12250 3750,10750 5250,10750 5250,12250 4500,12250 Z"/>
   </g>
  </g>
  <g class="com.sun.star.drawing.CustomShape">
   <g id="id10">
    <rect class="BoundingBox" stroke="none" fill="none" x="3723" y="12219" width="1555" height="1555"/>
    <path fill="rgb(255,255,255)" stroke="none" d="M 4500,13746 L 3750,13746 3750,12246 5250,12246 5250,13746 4500,13746 Z"/>
    <path fill="none" stroke="rgb(0,0,0)" stroke-width="53" stroke-linejoin="round" d="M 4500,13746 L 3750,13746 3750,12246 5250,12246 5250,13746 4500,13746 Z"/>
   </g>
  </g>
  <g class="com.sun.star.drawing.CustomShape">
   <g id="id11">
    <rect class="BoundingBox" stroke="none" fill="none" x="2233" y="12223" width="1555" height="1555"/>
    <path fill="rgb(191,129,158)" stroke="none" d="M 3010,13750 L 2260,13750 2260,12250 3760,12250 3760,13750 3010,13750 Z"/>
    <path fill="none" stroke="rgb(0,0,0)" stroke-width="53" stroke-linejoin="round" d="M 3010,13750 L 2260,13750 2260,12250 3760,12250 3760,13750 3010,13750 Z"/>
   </g>
  </g>
  <g class="com.sun.star.drawing.CustomShape">
   <g id="id12">
    <rect class="BoundingBox" stroke="none" fill="none" x="2233" y="1723" width="1555" height="1555"/>
    <path fill="rgb(255,255,255)" stroke="none" d="M 3010,3250 L 2260,3250 2260,1750 3760,1750 3760,3250 3010,3250 Z"/>
    <path fill="none" stroke="rgb(0,0,0)" stroke-width="53" stroke-linejoin="round" d="M 3010,3250 L 2260,3250 2260,1750 3760,1750 3760,3250 3010,3250 Z"/>
   </g>
  </g>
  <g class="com.sun.star.drawing.CustomShape">
   <g id="id13">
    <rect class="BoundingBox" stroke="none" fill="none" x="2233" y="3223" width="1555" height="1555"/>
    <path fill="rgb(191,129,158)" stroke="none" d="M 3010,4750 L 2260,4750 2260,3250 3760,3250 3760,4750 3010,4750 Z"/>
    <path fill="none" stroke="rgb(0,0,0)" stroke-width="53" stroke-linejoin="round" d="M 3010,4750 L 2260,4750 2260,3250 3760,3250 3760,4750 3010,4750 Z"/>
   </g>
  </g>
  <g class="com.sun.star.drawing.CustomShape">
   <g id="id14">
    <rect class="BoundingBox" stroke="none" fill="none" x="2233" y="4721" width="1555" height="1555"/>
    <path fill="rgb(255,255,255)" stroke="none" d="M 3010,6248 L 2260,6248 2260,4748 3760,4748 3760,6248 3010,6248 Z"/>
    <path fill="none" stroke="rgb(0,0,0)" stroke-width="53" stroke-linejoin="round" d="M 3010,6248 L 2260,6248 2260,4748 3760,4748 3760,6248 3010,6248 Z"/>
   </g>
  </g>
  <g class="com.sun.star.drawing.CustomShape">
   <g id="id15">
    <rect class="BoundingBox" stroke="none" fill="none" x="2233" y="6221" width="1555" height="1555"/>
    <path fill="rgb(191,129,158)" stroke="none" d="M 3010,7748 L 2260,7748 2260,6248 3760,6248 3760,7748 3010,7748 Z"/>
    <path fill="none" stroke="rgb(0,0,0)" stroke-width="53" stroke-linejoin="round" d="M 3010,7748 L 2260,7748 2260,6248 3760,6248 3760,7748 3010,7748 Z"/>
   </g>
  </g>
  <g class="com.sun.star.drawing.CustomShape">
   <g id="id16">
    <rect class="BoundingBox" stroke="none" fill="none" x="2233" y="7721" width="1555" height="1555"/>
    <path fill="rgb(255,255,255)" stroke="none" d="M 3010,9248 L 2260,9248 2260,7748 3760,7748 3760,9248 3010,9248 Z"/>
    <path fill="none" stroke="rgb(0,0,0)" stroke-width="53" stroke-linejoin="round" d="M 3010,9248 L 2260,9248 2260,7748 3760,7748 3760,9248 3010,9248 Z"/>
   </g>
  </g>
  <g class="com.sun.star.drawing.CustomShape">
   <g id="id17">
    <rect class="BoundingBox" stroke="none" fill="none" x="2233" y="9223" width="1555" height="1555"/>
    <path fill="rgb(191,129,158)" stroke="none" d="M 3010,10750 L 2260,10750 2260,9250 3760,9250 3760,10750 3010,10750 Z"/>
    <path fill="none" stroke="rgb(0,0,0)" stroke-width="53" stroke-linejoin="round" d="M 3010,10750 L 2260,10750 2260,9250 3760,9250 3760,10750 3010,10750 Z"/>
   </g>
  </g>
  <g class="com.sun.star.drawing.CustomShape">
   <g id="id18">
    <rect class="BoundingBox" stroke="none" fill="none" x="2233" y="10719" width="1555" height="1555"/>
    <path fill="rgb(255,255,255)" stroke="none" d="M 3010,12246 L 2260,12246 2260,10746 3760,10746 3760,12246 3010,12246 Z"/>
    <path fill="none" stroke="rgb(0,0,0)" stroke-width="53" stroke-linejoin="round" d="M 3010,12246 L 2260,12246 2260,10746 3760,10746 3760,12246 3010,12246 Z"/>
   </g>
  </g>
  <g class="com.sun.star.drawing.CustomShape">
   <g id="id19">
    <rect class="BoundingBox" stroke="none" fill="none" x="6701" y="1725" width="1555" height="1555"/>
    <path fill="rgb(191,129,158)" stroke="none" d="M 7478,3252 L 6728,3252 6728,1752 8228,1752 8228,3252 7478,3252 Z"/>
    <path fill="none" stroke="rgb(0,0,0)" stroke-width="53" stroke-linejoin="round" d="M 7478,3252 L 6728,3252 6728,1752 8228,1752 8228,3252 7478,3252 Z"/>
   </g>
  </g>
  <g class="com.sun.star.drawing.CustomShape">
   <g id="id20">
    <rect class="BoundingBox" stroke="none" fill="none" x="6701" y="3223" width="1555" height="1555"/>
    <path fill="rgb(255,255,255)" stroke="none" d="M 7478,4750 L 6728,4750 6728,3250 8228,3250 8228,4750 7478,4750 Z"/>
    <path fill="none" stroke="rgb(0,0,0)" stroke-width="53" stroke-linejoin="round" d="M 7478,4750 L 6728,4750 6728,3250 8228,3250 8228,4750 7478,4750 Z"/>
   </g>
  </g>
  <g class="com.sun.star.drawing.CustomShape">
   <g id="id21">
    <rect class="BoundingBox" stroke="none" fill="none" x="6701" y="4723" width="1555" height="1555"/>
    <path fill="rgb(191,129,158)" stroke="none" d="M 7478,6250 L 6728,6250 6728,4750 8228,4750 8228,6250 7478,6250 Z"/>
    <path fill="none" stroke="rgb(0,0,0)" stroke-width="53" stroke-linejoin="round" d="M 7478,6250 L 6728,6250 6728,4750 8228,4750 8228,6250 7478,6250 Z"/>
   </g>
  </g>
  <g class="com.sun.star.drawing.CustomShape">
   <g id="id22">
    <rect class="BoundingBox" stroke="none" fill="none" x="6701" y="6221" width="1555" height="1555"/>
    <path fill="rgb(255,255,255)" stroke="none" d="M 7478,7748 L 6728,7748 6728,6248 8228,6248 8228,7748 7478,7748 Z"/>
    <path fill="none" stroke="rgb(0,0,0)" stroke-width="53" stroke-linejoin="round" d="M 7478,7748 L 6728,7748 6728,6248 8228,6248 8228,7748 7478,7748 Z"/>
   </g>
  </g>
  <g class="com.sun.star.drawing.CustomShape">
   <g id="id23">
    <rect class="BoundingBox" stroke="none" fill="none" x="6701" y="7721" width="1555" height="1555"/>
    <path fill="rgb(191,129,158)" stroke="none" d="M 7478,9248 L 6728,9248 6728,7748 8228,7748 8228,9248 7478,9248 Z"/>
    <path fill="none" stroke="rgb(0,0,0)" stroke-width="53" stroke-linejoin="round" d="M 7478,9248 L 6728,9248 6728,7748 8228,7748 8228,9248 7478,9248 Z"/>
   </g>
  </g>
  <g class="com.sun.star.drawing.CustomShape">
   <g id="id24">
    <rect class="BoundingBox" stroke="none" fill="none" x="6701" y="9221" width="1555" height="1555"/>
    <path fill="rgb(255,255,255)" stroke="none" d="M 7478,10748 L 6728,10748 6728,9248 8228,9248 8228,10748 7478,10748 Z"/>
    <path fill="none" stroke="rgb(0,0,0)" stroke-width="53" stroke-linejoin="round" d="M 7478,10748 L 6728,10748 6728,9248 8228,9248 8228,10748 7478,10748 Z"/>
   </g>
  </g>
  <g class="com.sun.star.drawing.CustomShape">
   <g id="id25">
    <rect class="BoundingBox" stroke="none" fill="none" x="6701" y="10723" width="1555" height="1555"/>
    <path fill="rgb(191,129,158)" stroke="none" d="M 7478,12250 L 6728,12250 6728,10750 8228,10750 8228,12250 7478,12250 Z"/>
    <path fill="none" stroke="rgb(0,0,0)" stroke-width="53" stroke-linejoin="round" d="M 7478,12250 L 6728,12250 6728,10750 8228,10750 8228,12250 7478,12250 Z"/>
   </g>
  </g>
  <g class="com.sun.star.drawing.CustomShape">
   <g id="id26">
    <rect class="BoundingBox" stroke="none" fill="none" x="6701" y="12219" width="1555" height="1555"/>
    <path fill="rgb(255,255,255)" stroke="none" d="M 7478,13746 L 6728,13746 6728,12246 8228,12246 8228,13746 7478,13746 Z"/>
    <path fill="none" stroke="rgb(0,0,0)" stroke-width="53" stroke-linejoin="round" d="M 7478,13746 L 6728,13746 6728,12246 8228,12246 8228,13746 7478,13746 Z"/>
   </g>
  </g>
  <g class="com.sun.star.drawing.CustomShape">
   <g id="id27">
    <rect class="BoundingBox" stroke="none" fill="none" x="5211" y="12223" width="1555" height="1555"/>
    <path fill="rgb(191,129,158)" stroke="none" d="M 5988,13750 L 5238,13750 5238,12250 6738,12250 6738,13750 5988,13750 Z"/>
    <path fill="none" stroke="rgb(0,0,0)" stroke-width="53" stroke-linejoin="round" d="M 5988,13750 L 5238,13750 5238,12250 6738,12250 6738,13750 5988,13750 Z"/>
   </g>
  </g>
  <g class="com.sun.star.drawing.CustomShape">
   <g id="id28">
    <rect class="BoundingBox" stroke="none" fill="none" x="5211" y="1723" width="1555" height="1555"/>
    <path fill="rgb(255,255,255)" stroke="none" d="M 5988,3250 L 5238,3250 5238,1750 6738,1750 6738,3250 5988,3250 Z"/>
    <path fill="none" stroke="rgb(0,0,0)" stroke-width="53" stroke-linejoin="round" d="M 5988,3250 L 5238,3250 5238,1750 6738,1750 6738,3250 5988,3250 Z"/>
   </g>
  </g>
  <g class="com.sun.star.drawing.CustomShape">
   <g id="id29">
    <rect class="BoundingBox" stroke="none" fill="none" x="5211" y="3223" width="1555" height="1555"/>
    <path fill="rgb(191,129,158)" stroke="none" d="M 5988,4750 L 5238,4750 5238,3250 6738,3250 6738,4750 5988,4750 Z"/>
    <path fill="none" stroke="rgb(0,0,0)" stroke-width="53" stroke-linejoin="round" d="M 5988,4750 L 5238,4750 5238,3250 6738,3250 6738,4750 5988,4750 Z"/>
   </g>
  </g>
  <g class="com.sun.star.drawing.CustomShape">
   <g id="id30">
    <rect class="BoundingBox" stroke="none" fill="none" x="5211" y="4721" width="1555" height="1555"/>
    <path fill="rgb(255,255,255)" stroke="none" d="M 5988,6248 L 5238,6248 5238,4748 6738,4748 6738,6248 5988,6248 Z"/>
    <path fill="none" stroke="rgb(0,0,0)" stroke-width="53" stroke-linejoin="round" d="M 5988,6248 L 5238,6248 5238,4748 6738,4748 6738,6248 5988,6248 Z"/>
   </g>
  </g>
  <g class="com.sun.star.drawing.CustomShape">
   <g id="id31">
    <rect class="BoundingBox" stroke="none" fill="none" x="5211" y="6221" width="1555" height="1555"/>
    <path fill="rgb(191,129,158)" stroke="none" d="M 5988,7748 L 5238,7748 5238,6248 6738,6248 6738,7748 5988,7748 Z"/>
    <path fill="none" stroke="rgb(0,0,0)" stroke-width="53" stroke-linejoin="round" d="M 5988,7748 L 5238,7748 5238,6248 6738,6248 6738,7748 5988,7748 Z"/>
   </g>
  </g>
  <g class="com.sun.star.drawing.CustomShape">
   <g id="id32">
    <rect class="BoundingBox" stroke="none" fill="none" x="5211" y="7721" width="1555" height="1555"/>
    <path fill="rgb(255,255,255)" stroke="none" d="M 5988,9248 L 5238,9248 5238,7748 6738,7748 6738,9248 5988,9248 Z"/>
    <path fill="none" stroke="rgb(0,0,0)" stroke-width="53" stroke-linejoin="round" d="M 5988,9248 L 5238,9248 5238,7748 6738,7748 6738,9248 5988,9248 Z"/>
   </g>
  </g>
  <g class="com.sun.star.drawing.CustomShape">
   <g id="id33">
    <rect class="BoundingBox" stroke="none" fill="none" x="5211" y="9223" width="1555" height="1555"/>
    <path fill="rgb(191,129,158)" stroke="none" d="M 5988,10750 L 5238,10750 5238,9250 6738,9250 6738,10750 5988,10750 Z"/>
    <path fill="none" stroke="rgb(0,0,0)" stroke-width="53" stroke-linejoin="round" d="M 5988,10750 L 5238,10750 5238,9250 6738,9250 6738,10750 5988,10750 Z"/>
   </g>
  </g>
  <g class="com.sun.star.drawing.CustomShape">
   <g id="id34">
    <rect class="BoundingBox" stroke="none" fill="none" x="5211" y="10719" width="1555" height="1555"/>
    <path fill="rgb(255,255,255)" stroke="none" d="M 5988,12246 L 5238,12246 5238,10746 6738,10746 6738,12246 5988,12246 Z"/>
    <path fill="none" stroke="rgb(0,0,0)" stroke-width="53" stroke-linejoin="round" d="M 5988,12246 L 5238,12246 5238,10746 6738,10746 6738,12246 5988,12246 Z"/>
   </g>
  </g>
  <g class="com.sun.star.drawing.CustomShape">
   <g id="id35">
    <rect class="BoundingBox" stroke="none" fill="none" x="9689" y="1725" width="1555" height="1555"/>
    <path fill="rgb(191,129,158)" stroke="none" d="M 10466,3252 L 9716,3252 9716,1752 11216,1752 11216,3252 10466,3252 Z"/>
    <path fill="none" stroke="rgb(0,0,0)" stroke-width="53" stroke-linejoin="round" d="M 10466,3252 L 9716,3252 9716,1752 11216,1752 11216,3252 10466,3252 Z"/>
   </g>
  </g>
  <g class="com.sun.star.drawing.CustomShape">
   <g id="id36">
    <rect class="BoundingBox" stroke="none" fill="none" x="9689" y="3223" width="1555" height="1555"/>
    <path fill="rgb(255,255,255)" stroke="none" d="M 10466,4750 L 9716,4750 9716,3250 11216,3250 11216,4750 10466,4750 Z"/>
    <path fill="none" stroke="rgb(0,0,0)" stroke-width="53" stroke-linejoin="round" d="M 10466,4750 L 9716,4750 9716,3250 11216,3250 11216,4750 10466,4750 Z"/>
   </g>
  </g>
  <g class="com.sun.star.drawing.CustomShape">
   <g id="id37">
    <rect class="BoundingBox" stroke="none" fill="none" x="9689" y="4723" width="1555" height="1555"/>
    <path fill="rgb(191,129,158)" stroke="none" d="M 10466,6250 L 9716,6250 9716,4750 11216,4750 11216,6250 10466,6250 Z"/>
    <path fill="none" stroke="rgb(0,0,0)" stroke-width="53" stroke-linejoin="round" d="M 10466,6250 L 9716,6250 9716,4750 11216,4750 11216,6250 10466,6250 Z"/>
   </g>
  </g>
  <g class="com.sun.star.drawing.CustomShape">
   <g id="id38">
    <rect class="BoundingBox" stroke="none" fill="none" x="9689" y="6221" width="1555" height="1555"/>
    <path fill="rgb(255,255,255)" stroke="none" d="M 10466,7748 L 9716,7748 9716,6248 11216,6248 11216,7748 10466,7748 Z"/>
    <path fill="none" stroke="rgb(0,0,0)" stroke-width="53" stroke-linejoin="round" d="M 10466,7748 L 9716,7748 9716,6248 11216,6248 11216,7748 10466,7748 Z"/>
   </g>
  </g>
  <g class="com.sun.star.drawing.CustomShape">
   <g id="id39">
    <rect class="BoundingBox" stroke="none" fill="none" x="9689" y="7721" width="1555" height="1555"/>
    <path fill="rgb(191,129,158)" stroke="none" d="M 10466,9248 L 9716,9248 9716,7748 11216,7748 11216,9248 10466,9248 Z"/>
    <path fill="none" stroke="rgb(0,0,0)" stroke-width="53" stroke-linejoin="round" d="M 10466,9248 L 9716,9248 9716,7748 11216,7748 11216,9248 10466,9248 Z"/>
   </g>
  </g>
  <g class="com.sun.star.drawing.CustomShape">
   <g id="id40">
    <rect class="BoundingBox" stroke="none" fill="none" x="9689" y="9221" width="1555" height="1555"/>
    <path fill="rgb(255,255,255)" stroke="none" d="M 10466,10748 L 9716,10748 9716,9248 11216,9248 11216,10748 10466,10748 Z"/>
    <path fill="none" stroke="rgb(0,0,0)" stroke-width="53" stroke-linejoin="round" d="M 10466,10748 L 9716,10748 9716,9248 11216,9248 11216,10748 10466,10748 Z"/>
   </g>
  </g>
  <g class="com.sun.star.drawing.CustomShape">
   <g id="id41">
    <rect class="BoundingBox" stroke="none" fill="none" x="9689" y="10723" width="1555" height="1555"/>
    <path fill="rgb(191,129,158)" stroke="none" d="M 10466,12250 L 9716,12250 9716,10750 11216,10750 11216,12250 10466,12250 Z"/>
    <path fill="none" stroke="rgb(0,0,0)" stroke-width="53" stroke-linejoin="round" d="M 10466,12250 L 9716,12250 9716,10750 11216,10750 11216,12250 10466,12250 Z"/>
   </g>
  </g>
  <g class="com.sun.star.drawing.CustomShape">
   <g id="id42">
    <rect class="BoundingBox" stroke="none" fill="none" x="9689" y="12219" width="1555" height="1555"/>
    <path fill="rgb(255,255,255)" stroke="none" d="M 10466,13746 L 9716,13746 9716,12246 11216,12246 11216,13746 10466,13746 Z"/>
    <path fill="none" stroke="rgb(0,0,0)" stroke-width="53" stroke-linejoin="round" d="M 10466,13746 L 9716,13746 9716,12246 11216,12246 11216,13746 10466,13746 Z"/>
   </g>
  </g>
  <g class="com.sun.star.drawing.CustomShape">
   <g id="id43">
    <rect class="BoundingBox" stroke="none" fill="none" x="8199" y="12223" width="1555" height="1555"/>
    <path fill="rgb(191,129,158)" stroke="none" d="M 8976,13750 L 8226,13750 8226,12250 9726,12250 9726,13750 8976,13750 Z"/>
    <path fill="none" stroke="rgb(0,0,0)" stroke-width="53" stroke-linejoin="round" d="M 8976,13750 L 8226,13750 8226,12250 9726,12250 9726,13750 8976,13750 Z"/>
   </g>
  </g>
  <g class="com.sun.star.drawing.CustomShape">
   <g id="id44">
    <rect class="BoundingBox" stroke="none" fill="none" x="8199" y="1723" width="1555" height="1555"/>
    <path fill="rgb(255,255,255)" stroke="none" d="M 8976,3250 L 8226,3250 8226,1750 9726,1750 9726,3250 8976,3250 Z"/>
    <path fill="none" stroke="rgb(0,0,0)" stroke-width="53" stroke-linejoin="round" d="M 8976,3250 L 8226,3250 8226,1750 9726,1750 9726,3250 8976,3250 Z"/>
   </g>
  </g>
  <g class="com.sun.star.drawing.CustomShape">
   <g id="id45">
    <rect class="BoundingBox" stroke="none" fill="none" x="8199" y="3223" width="1555" height="1555"/>
    <path fill="rgb(191,129,158)" stroke="none" d="M 8976,4750 L 8226,4750 8226,3250 9726,3250 9726,4750 8976,4750 Z"/>
    <path fill="none" stroke="rgb(0,0,0)" stroke-width="53" stroke-linejoin="round" d="M 8976,4750 L 8226,4750 8226,3250 9726,3250 9726,4750 8976,4750 Z"/>
   </g>
  </g>
  <g class="com.sun.star.drawing.CustomShape">
   <g id="id46">
    <rect class="BoundingBox" stroke="none" fill="none" x="8199" y="4721" width="1555" height="1555"/>
    <path fill="rgb(255,255,255)" stroke="none" d="M 8976,6248 L 8226,6248 8226,4748 9726,4748 9726,6248 8976,6248 Z"/>
    <path fill="none" stroke="rgb(0,0,0)" stroke-width="53" stroke-linejoin="round" d="M 8976,6248 L 8226,6248 8226,4748 9726,4748 9726,6248 8976,6248 Z"/>
   </g>
  </g>
  <g class="com.sun.star.drawing.CustomShape">
   <g id="id47">
    <rect class="BoundingBox" stroke="none" fill="none" x="8199" y="6221" width="1555" height="1555"/>
    <path fill="rgb(191,129,158)" stroke="none" d="M 8976,7748 L 8226,7748 8226,6248 9726,6248 9726,7748 8976,7748 Z"/>
    <path fill="none" stroke="rgb(0,0,0)" stroke-width="53" stroke-linejoin="round" d="M 8976,7748 L 8226,7748 8226,6248 9726,6248 9726,7748 8976,7748 Z"/>
   </g>
  </g>
  <g class="com.sun.star.drawing.CustomShape">
   <g id="id48">
    <rect class="BoundingBox" stroke="none" fill="none" x="8199" y="7721" width="1555" height="1555"/>
    <path fill="rgb(255,255,255)" stroke="none" d="M 8976,9248 L 8226,9248 8226,7748 9726,7748 9726,9248 8976,9248 Z"/>
    <path fill="none" stroke="rgb(0,0,0)" stroke-width="53" stroke-linejoin="round" d="M 8976,9248 L 8226,9248 8226,7748 9726,7748 9726,9248 8976,9248 Z"/>
   </g>
  </g>
  <g class="com.sun.star.drawing.CustomShape">
   <g id="id49">
    <rect class="BoundingBox" stroke="none" fill="none" x="8199" y="9223" width="1555" height="1555"/>
    <path fill="rgb(191,129,158)" stroke="none" d="M 8976,10750 L 8226,10750 8226,9250 9726,9250 9726,10750 8976,10750 Z"/>
    <path fill="none" stroke="rgb(0,0,0)" stroke-width="53" stroke-linejoin="round" d="M 8976,10750 L 8226,10750 8226,9250 9726,9250 9726,10750 8976,10750 Z"/>
   </g>
  </g>
  <g class="com.sun.star.drawing.CustomShape">
   <g id="id50">
    <rect class="BoundingBox" stroke="none" fill="none" x="8199" y="10719" width="1555" height="1555"/>
    <path fill="rgb(255,255,255)" stroke="none" d="M 8976,12246 L 8226,12246 8226,10746 9726,10746 9726,12246 8976,12246 Z"/>
    <path fill="none" stroke="rgb(0,0,0)" stroke-width="53" stroke-linejoin="round" d="M 8976,12246 L 8226,12246 8226,10746 9726,10746 9726,12246 8976,12246 Z"/>
   </g>
  </g>
  <g class="com.sun.star.drawing.CustomShape">
   <g id="id51">
    <rect class="BoundingBox" stroke="none" fill="none" x="12669" y="1725" width="1555" height="1555"/>
    <path fill="rgb(191,129,158)" stroke="none" d="M 13446,3252 L 12696,3252 12696,1752 14196,1752 14196,3252 13446,3252 Z"/>
    <path fill="none" stroke="rgb(0,0,0)" stroke-width="53" stroke-linejoin="round" d="M 13446,3252 L 12696,3252 12696,1752 14196,1752 14196,3252 13446,3252 Z"/>
   </g>
  </g>
  <g class="com.sun.star.drawing.CustomShape">
   <g id="id52">
    <rect class="BoundingBox" stroke="none" fill="none" x="12669" y="3223" width="1555" height="1555"/>
    <path fill="rgb(255,255,255)" stroke="none" d="M 13446,4750 L 12696,4750 12696,3250 14196,3250 14196,4750 13446,4750 Z"/>
    <path fill="none" stroke="rgb(0,0,0)" stroke-width="53" stroke-linejoin="round" d="M 13446,4750 L 12696,4750 12696,3250 14196,3250 14196,4750 13446,4750 Z"/>
   </g>
  </g>
  <g class="com.sun.star.drawing.CustomShape">
   <g id="id53">
    <rect class="BoundingBox" stroke="none" fill="none" x="12669" y="4723" width="1555" height="1555"/>
    <path fill="rgb(191,129,158)" stroke="none" d="M 13446,6250 L 12696,6250 12696,4750 14196,4750 14196,6250 13446,6250 Z"/>
    <path fill="none" stroke="rgb(0,0,0)" stroke-width="53" stroke-linejoin="round" d="M 13446,6250 L 12696,6250 12696,4750 14196,4750 14196,6250 13446,6250 Z"/>
   </g>
  </g>
  <g class="com.sun.star.drawing.CustomShape">
   <g id="id54">
    <rect class="BoundingBox" stroke="none" fill="none" x="12669" y="6221" width="1555" height="1555"/>
    <path fill="rgb(255,255,255)" stroke="none" d="M 13446,7748 L 12696,7748 12696,6248 14196,6248 14196,7748 13446,7748 Z"/>
    <path fill="none" stroke="rgb(0,0,0)" stroke-width="53" stroke-linejoin="round" d="M 13446,7748 L 12696,7748 12696,6248 14196,6248 14196,7748 13446,7748 Z"/>
   </g>
  </g>
  <g class="com.sun.star.drawing.CustomShape">
   <g id="id55">
    <rect class="BoundingBox" stroke="none" fill="none" x="12669" y="7721" width="1555" height="1555"/>
    <path fill="rgb(191,129,158)" stroke="none" d="M 13446,9248 L 12696,9248 12696,7748 14196,7748 14196,9248 13446,9248 Z"/>
    <path fill="none" stroke="rgb(0,0,0)" stroke-width="53" stroke-linejoin="round" d="M 13446,9248 L 12696,9248 12696,7748 14196,7748 14196,9248 13446,9248 Z"/>
   </g>
  </g>
  <g class="com.sun.star.drawing.CustomShape">
   <g id="id56">
    <rect class="BoundingBox" stroke="none" fill="none" x="12669" y="9221" width="1555" height="1555"/>
    <path fill="rgb(255,255,255)" stroke="none" d="M 13446,10748 L 12696,10748 12696,9248 14196,9248 14196,10748 13446,10748 Z"/>
    <path fill="none" stroke="rgb(0,0,0)" stroke-width="53" stroke-linejoin="round" d="M 13446,10748 L 12696,10748 12696,9248 14196,9248 14196,10748 13446,10748 Z"/>
   </g>
  </g>
  <g class="com.sun.star.drawing.CustomShape">
   <g id="id57">
    <rect class="BoundingBox" stroke="none" fill="none" x="12669" y="10723" width="1555" height="1555"/>
    <path fill="rgb(191,129,158)" stroke="none" d="M 13446,12250 L 12696,12250 12696,10750 14196,10750 14196,12250 13446,12250 Z"/>
    <path fill="none" stroke="rgb(0,0,0)" stroke-width="53" stroke-linejoin="round" d="M 13446,12250 L 12696,12250 12696,10750 14196,10750 14196,12250 13446,12250 Z"/>
   </g>
  </g>
  <g class="com.sun.star.drawing.CustomShape">
   <g id="id58">
    <rect class="BoundingBox" stroke="none" fill="none" x="12669" y="12219" width="1555" height="1555"/>
    <path fill="rgb(255,255,255)" stroke="none" d="M 13446,13746 L 12696,13746 12696,12246 14196,12246 14196,13746 13446,13746 Z"/>
    <path fill="none" stroke="rgb(0,0,0)" stroke-width="53" stroke-linejoin="round" d="M 13446,13746 L 12696,13746 12696,12246 14196,12246 14196,13746 13446,13746 Z"/>
   </g>
  </g>
  <g class="com.sun.star.drawing.CustomShape">
   <g id="id59">
    <rect class="BoundingBox" stroke="none" fill="none" x="11179" y="12223" width="1555" height="1555"/>
    <path fill="rgb(191,129,158)" stroke="none" d="M 11956,13750 L 11206,13750 11206,12250 12706,12250 12706,13750 11956,13750 Z"/>
    <path fill="none" stroke="rgb(0,0,0)" stroke-width="53" stroke-linejoin="round" d="M 11956,13750 L 11206,13750 11206,12250 12706,12250 12706,13750 11956,13750 Z"/>
   </g>
  </g>
  <g class="com.sun.star.drawing.CustomShape">
   <g id="id60">
    <rect class="BoundingBox" stroke="none" fill="none" x="11179" y="1723" width="1555" height="1555"/>
    <path fill="rgb(255,255,255)" stroke="none" d="M 11956,3250 L 11206,3250 11206,1750 12706,1750 12706,3250 11956,3250 Z"/>
    <path fill="none" stroke="rgb(0,0,0)" stroke-width="53" stroke-linejoin="round" d="M 11956,3250 L 11206,3250 11206,1750 12706,1750 12706,3250 11956,3250 Z"/>
   </g>
  </g>
  <g class="com.sun.star.drawing.CustomShape">
   <g id="id61">
    <rect class="BoundingBox" stroke="none" fill="none" x="11179" y="3223" width="1555" height="1555"/>
    <path fill="rgb(191,129,158)" stroke="none" d="M 11956,4750 L 11206,4750 11206,3250 12706,3250 12706,4750 11956,4750 Z"/>
    <path fill="none" stroke="rgb(0,0,0)" stroke-width="53" stroke-linejoin="round" d="M 11956,4750 L 11206,4750 11206,3250 12706,3250 12706,4750 11956,4750 Z"/>
   </g>
  </g>
  <g class="com.sun.star.drawing.CustomShape">
   <g id="id62">
    <rect class="BoundingBox" stroke="none" fill="none" x="11179" y="4721" width="1555" height="1555"/>
    <path fill="rgb(255,255,255)" stroke="none" d="M 11956,6248 L 11206,6248 11206,4748 12706,4748 12706,6248 11956,6248 Z"/>
    <path fill="none" stroke="rgb(0,0,0)" stroke-width="53" stroke-linejoin="round" d="M 11956,6248 L 11206,6248 11206,4748 12706,4748 12706,6248 11956,6248 Z"/>
   </g>
  </g>
  <g class="com.sun.star.drawing.CustomShape">
   <g id="id63">
    <rect class="BoundingBox" stroke="none" fill="none" x="11179" y="6221" width="1555" height="1555"/>
    <path fill="rgb(191,129,158)" stroke="none" d="M 11956,7748 L 11206,7748 11206,6248 12706,6248 12706,7748 11956,7748 Z"/>
    <path fill="none" stroke="rgb(0,0,0)" stroke-width="53" stroke-linejoin="round" d="M 11956,7748 L 11206,7748 11206,6248 12706,6248 12706,7748 11956,7748 Z"/>
   </g>
  </g>
  <g class="com.sun.star.drawing.CustomShape">
   <g id="id64">
    <rect class="BoundingBox" stroke="none" fill="none" x="11179" y="7721" width="1555" height="1555"/>
    <path fill="rgb(255,255,255)" stroke="none" d="M 11956,9248 L 11206,9248 11206,7748 12706,7748 12706,9248 11956,9248 Z"/>
    <path fill="none" stroke="rgb(0,0,0)" stroke-width="53" stroke-linejoin="round" d="M 11956,9248 L 11206,9248 11206,7748 12706,7748 12706,9248 11956,9248 Z"/>
   </g>
  </g>
  <g class="com.sun.star.drawing.CustomShape">
   <g id="id65">
    <rect class="BoundingBox" stroke="none" fill="none" x="11179" y="9223" width="1555" height="1555"/>
    <path fill="rgb(191,129,158)" stroke="none" d="M 11956,10750 L 11206,10750 11206,9250 12706,9250 12706,10750 11956,10750 Z"/>
    <path fill="none" stroke="rgb(0,0,0)" stroke-width="53" stroke-linejoin="round" d="M 11956,10750 L 11206,10750 11206,9250 12706,9250 12706,10750 11956,10750 Z"/>
   </g>
  </g>
  <g class="com.sun.star.drawing.CustomShape">
   <g id="id66">
    <rect class="BoundingBox" stroke="none" fill="none" x="11179" y="10719" width="1555" height="1555"/>
    <path fill="rgb(255,255,255)" stroke="none" d="M 11956,12246 L 11206,12246 11206,10746 12706,10746 12706,12246 11956,12246 Z"/>
    <path fill="none" stroke="rgb(0,0,0)" stroke-width="53" stroke-linejoin="round" d="M 11956,12246 L 11206,12246 11206,10746 12706,10746 12706,12246 11956,12246 Z"/>
   </g>
  </g>
 </g>
</svg>